<?xml version="1.0" encoding="UTF-8" standalone="no"?>
<!-- Created with Inkscape (http://www.inkscape.org/) -->

<svg
   width="35"
   height="34"
   viewBox="0 0 9.2604164 8.9958333"
   version="1.1"
   id="svg1"
   inkscape:version="1.4.2 (ebf0e940d0, 2025-05-08)"
   sodipodi:docname="keyboard.svg"
   inkscape:export-filename="entry.png"
   inkscape:export-xdpi="96"
   inkscape:export-ydpi="96"
   xml:space="preserve"
   xmlns:inkscape="http://www.inkscape.org/namespaces/inkscape"
   xmlns:sodipodi="http://sodipodi.sourceforge.net/DTD/sodipodi-0.dtd"
   xmlns="http://www.w3.org/2000/svg"
   xmlns:svg="http://www.w3.org/2000/svg"><sodipodi:namedview
     id="namedview1"
     pagecolor="#000000"
     bordercolor="#ffffff"
     borderopacity="0"
     inkscape:showpageshadow="false"
     inkscape:pageopacity="0.0"
     inkscape:pagecheckerboard="0"
     inkscape:deskcolor="#c3c3c3"
     inkscape:document-units="mm"
     inkscape:zoom="7.8615037"
     inkscape:cx="-1.017617"
     inkscape:cy="19.589128"
     inkscape:window-width="1920"
     inkscape:window-height="1008"
     inkscape:window-x="0"
     inkscape:window-y="40"
     inkscape:window-maximized="1"
     inkscape:current-layer="layer1"
     showborder="false"
     borderlayer="false" /><defs
     id="defs1" /><g
     inkscape:label="Layer 1"
     inkscape:groupmode="layer"
     id="layer1"
     style="display:inline"
     transform="translate(0.24207103,0.24207342)"><g
       style="fill:#ffffff;fill-opacity:1;stroke-width:30.4761"
       id="g1"
       transform="matrix(0.01205783,0,0,0.01205783,0.91548226,1.1690388)"><path
         d="M 528,448 H 48 C 21.49,448 0,426.51 0,400 V 112 C 0,85.49 21.49,64 48,64 h 480 c 26.51,0 48,21.49 48,48 v 288 c 0,26.51 -21.49,48 -48,48 z M 128,180 v -40 c 0,-6.627 -5.373,-12 -12,-12 H 76 c -6.627,0 -12,5.373 -12,12 v 40 c 0,6.627 5.373,12 12,12 h 40 c 6.627,0 12,-5.373 12,-12 z m 96,0 v -40 c 0,-6.627 -5.373,-12 -12,-12 h -40 c -6.627,0 -12,5.373 -12,12 v 40 c 0,6.627 5.373,12 12,12 h 40 c 6.627,0 12,-5.373 12,-12 z m 96,0 v -40 c 0,-6.627 -5.373,-12 -12,-12 h -40 c -6.627,0 -12,5.373 -12,12 v 40 c 0,6.627 5.373,12 12,12 h 40 c 6.627,0 12,-5.373 12,-12 z m 96,0 v -40 c 0,-6.627 -5.373,-12 -12,-12 h -40 c -6.627,0 -12,5.373 -12,12 v 40 c 0,6.627 5.373,12 12,12 h 40 c 6.627,0 12,-5.373 12,-12 z m 96,0 v -40 c 0,-6.627 -5.373,-12 -12,-12 h -40 c -6.627,0 -12,5.373 -12,12 v 40 c 0,6.627 5.373,12 12,12 h 40 c 6.627,0 12,-5.373 12,-12 z m -336,96 v -40 c 0,-6.627 -5.373,-12 -12,-12 h -40 c -6.627,0 -12,5.373 -12,12 v 40 c 0,6.627 5.373,12 12,12 h 40 c 6.627,0 12,-5.373 12,-12 z m 96,0 v -40 c 0,-6.627 -5.373,-12 -12,-12 h -40 c -6.627,0 -12,5.373 -12,12 v 40 c 0,6.627 5.373,12 12,12 h 40 c 6.627,0 12,-5.373 12,-12 z m 96,0 v -40 c 0,-6.627 -5.373,-12 -12,-12 h -40 c -6.627,0 -12,5.373 -12,12 v 40 c 0,6.627 5.373,12 12,12 h 40 c 6.627,0 12,-5.373 12,-12 z m 96,0 v -40 c 0,-6.627 -5.373,-12 -12,-12 h -40 c -6.627,0 -12,5.373 -12,12 v 40 c 0,6.627 5.373,12 12,12 h 40 c 6.627,0 12,-5.373 12,-12 z m -336,96 v -40 c 0,-6.627 -5.373,-12 -12,-12 H 76 c -6.627,0 -12,5.373 -12,12 v 40 c 0,6.627 5.373,12 12,12 h 40 c 6.627,0 12,-5.373 12,-12 z m 288,0 v -40 c 0,-6.627 -5.373,-12 -12,-12 H 172 c -6.627,0 -12,5.373 -12,12 v 40 c 0,6.627 5.373,12 12,12 h 232 c 6.627,0 12,-5.373 12,-12 z m 96,0 v -40 c 0,-6.627 -5.373,-12 -12,-12 h -40 c -6.627,0 -12,5.373 -12,12 v 40 c 0,6.627 5.373,12 12,12 h 40 c 6.627,0 12,-5.373 12,-12 z"
         id="path1"
         style="fill:#ffffff;fill-opacity:1;stroke-width:30.4761" /></g></g></svg>
