<svg xmlns="http://www.w3.org/2000/svg" version="1.1" id="svg10" sodipodi:docname="nixos-logo.svg" inkscape:version="1.4.2 (ebf0e940d0, 2025-05-08)" width="696.90216" height="255.99998" inkscape:export-filename="nixos-logo.png" inkscape:export-xdpi="96" inkscape:export-ydpi="96" xmlns:inkscape="http://www.inkscape.org/namespaces/inkscape" xmlns:sodipodi="http://sodipodi.sourceforge.net/DTD/sodipodi-0.dtd" xmlns:svg="http://www.w3.org/2000/svg" viewBox="0 0 696.90216 255.99998" data-app="Xyris">
    <defs id="defs10">
        <filter inkscape:collect="always" color-interpolation-filters="sRGB" id="filter21" x="-0.017278496" y="-0.061733468" width="1.034557" height="1.1234669">
            <feGaussianBlur inkscape:collect="always" stdDeviation="51.324243" id="feGaussianBlur21">
            </feGaussianBlur>
        </filter>
        <filter inkscape:collect="always" color-interpolation-filters="sRGB" id="filter31" x="-0.069113985" y="-0.24693387" width="1.138228" height="1.4938677">
            <feGaussianBlur inkscape:collect="always" stdDeviation="205.29697" id="feGaussianBlur31">
            </feGaussianBlur>
        </filter>
    </defs>
    <sodipodi:namedview id="namedview10" pagecolor="#000000" bordercolor="#666666" borderopacity="1.0" inkscape:showpageshadow="2" inkscape:pageopacity="0.0" inkscape:pagecheckerboard="true" inkscape:deskcolor="#d1d1d1" inkscape:zoom="1.5564562" inkscape:cx="355.93677" inkscape:cy="183.10827" inkscape:window-width="1920" inkscape:window-height="1008" inkscape:window-x="0" inkscape:window-y="40" inkscape:window-maximized="1" inkscape:current-layer="svg10">
    </sodipodi:namedview>
    <g id="g1" transform="" opacity="0">
        <g id="blur2" inkscape:label="blur2" transform="matrix(0.08588448,0,0,0.08588448,-3006.0672,-2864.9838)" style="display: inline;" filter="url(#filter31)" transform-origin="">
            <polygon fill="#ffffff" points="36069.99609375,35846.609375 36005.99609375,35735.7578125 36197.99609375,35403.203125 36021.99609375,35098.36328125 36149.99609375,34876.66015625 36709.99609375,35846.609375 36453.99609375,35846.609375 36325.99609375,35624.90625 36197.99609375,35846.609375" id="polygon11" transform="">
            </polygon>
            <polygon fill="#ffffff" points="35493.99609375,34848.94921875 35557.99609375,34738.09765625 35941.99609375,34738.09765625 36117.99609375,34433.2578125 36373.99609375,34433.2578125 35813.99609375,35403.203125 35685.99609375,35181.50390625 35813.99609375,34959.80078125 35557.99609375,34959.80078125" id="polygon12" transform="">
            </polygon>
            <polygon fill="#ffffff" points="36069.99609375,33851.2890625 36197.99609375,33851.2890625 36389.99609375,34183.83984375 36741.99609375,34183.83984375 36869.99609375,34405.54296875 35749.99609375,34405.54296875 35877.99609375,34183.83984375 36133.99609375,34183.83984375 36005.99609375,33962.13671875" id="polygon13" transform="">
            </polygon>
            <polygon fill="#ffffff" points="37221.99609375,33851.2890625 37285.99609375,33962.13671875 37093.99609375,34294.69140625 37269.99609375,34599.53125 37141.99609375,34821.234375 36581.99609375,33851.2890625 36837.99609375,33851.2890625 36965.99609375,34072.98828125 37093.99609375,33851.2890625" id="polygon14" transform="">
            </polygon>
            <polygon fill="#ffffff" points="37797.99609375,34848.94921875 37733.99609375,34959.80078125 37349.99609375,34959.80078125 37173.99609375,35264.640625 36917.99609375,35264.640625 37477.99609375,34294.69140625 37605.99609375,34516.39453125 37477.99609375,34738.09765625 37733.99609375,34738.09765625" id="polygon15" transform="">
            </polygon>
            <polygon fill="#ffffff" points="37221.99609375,35846.609375 37093.99609375,35846.609375 36901.99609375,35514.0546875 36549.99609375,35514.0546875 36421.99609375,35292.3515625 37541.99609375,35292.3515625 37413.99609375,35514.0546875 37157.99609375,35514.0546875 37285.99609375,35735.7578125" id="polygon16" transform="">
            </polygon>
            <g transform="translate(1152,665.10751)" id="g20" transform-origin="">
                <path d="M 37897.5 33518 L 38052.5 33518 L 38052.5 34849 L 37904.5 34849 L 37160.5 33794 L 37160.5 34849 L 37005.5 34849 L 37005.5 33518 L 37153.5 33518 L 37897.5 34574" fill="#ffffff" id="path16" transform="">
                </path>
                <path d="M 38372.3 33705 L 38372.3 33560 C 38332.3 33549 38254.3 33549 38214.3 33560 L 38214.3 33705 C 38254.3 33716 38332.3 33716 38372.3 33705 M 38372.3 34849 L 38372.3 33914 L 38214.3 33896 L 38214.3 34849" fill="#ffffff" id="path17" transform="">
                </path>
                <path d="M 39334.1 33914 L 38997.1 34369 L 39332.1 34849 L 39139.1 34849 L 38909.1 34479 L 38681.1 34849 L 38498.1 34849 L 38832.1 34382 L 38514.1 33914 L 38708.1 33914 L 38916.1 34275 L 39143.1 33914" fill="#ffffff" id="path18" transform="">
                </path>
                <path d="M 40035 33493 C 40368 33493 40646 33736 40646 34184 C 40646 34632 40368 34874 40035 34874 C 39702 34874 39424 34632 39424 34184 C 39424 33736 39702 33493 40035 33493 M 40035 34738 C 40301 34738 40470 34517 40470 34184 C 40470 33851 40301 33630 40035 33630 C 39769 33630 39600 33851 39600 34184 C 39600 34517 39769 34738 40035 34738" fill="#ffffff" id="path19" transform="">
                </path>
                <path d="M 41018 34874 C 40887 34874 40745 34840 40664 34761 L 40736 34646 C 40821 34702 40923 34730 41024 34730 C 41177 34730 41295 34664 41295 34524 C 41295 34402 41207 34330 41004 34211 C 40849 34121 40729 34026 40729 33837 C 40729 33621 40903 33493 41153 33493 C 41257 33493 41349 33513 41432 33562 L 41378 33682 C 41313 33648 41218 33637 41141 33637 C 40985 33637 40898 33702 40898 33815 C 40898 33926 40977 34009 41106 34085 C 41345 34225 41471 34318 41471 34509 C 41471 34750 41268 34874 41018 34874" fill="#ffffff" id="path20" transform="">
                </path>
            </g>
        </g>
        <g id="blur" inkscape:label="blur" transform="matrix(0.08588448,0,0,0.08588448,-3006.0672,-2864.9838)" filter="url(#filter21)" transform-origin="">
            <polygon fill="#ffffff" points="36005.99609375,35735.7578125 36197.99609375,35403.203125 36021.99609375,35098.36328125 36149.99609375,34876.66015625 36709.99609375,35846.609375 36453.99609375,35846.609375 36325.99609375,35624.90625 36197.99609375,35846.609375 36069.99609375,35846.609375" id="polygon1" transform="">
            </polygon>
            <polygon fill="#ffffff" points="35557.99609375,34738.09765625 35941.99609375,34738.09765625 36117.99609375,34433.2578125 36373.99609375,34433.2578125 35813.99609375,35403.203125 35685.99609375,35181.50390625 35813.99609375,34959.80078125 35557.99609375,34959.80078125 35493.99609375,34848.94921875" id="polygon2" transform="">
            </polygon>
            <polygon fill="#ffffff" points="36197.99609375,33851.2890625 36389.99609375,34183.83984375 36741.99609375,34183.83984375 36869.99609375,34405.54296875 35749.99609375,34405.54296875 35877.99609375,34183.83984375 36133.99609375,34183.83984375 36005.99609375,33962.13671875 36069.99609375,33851.2890625" id="polygon3" transform="">
            </polygon>
            <polygon fill="#ffffff" points="37285.99609375,33962.13671875 37093.99609375,34294.69140625 37269.99609375,34599.53125 37141.99609375,34821.234375 36581.99609375,33851.2890625 36837.99609375,33851.2890625 36965.99609375,34072.98828125 37093.99609375,33851.2890625 37221.99609375,33851.2890625" id="polygon4" transform="">
            </polygon>
            <polygon fill="#ffffff" points="37733.99609375,34959.80078125 37349.99609375,34959.80078125 37173.99609375,35264.640625 36917.99609375,35264.640625 37477.99609375,34294.69140625 37605.99609375,34516.39453125 37477.99609375,34738.09765625 37733.99609375,34738.09765625 37797.99609375,34848.94921875" id="polygon5" transform="">
            </polygon>
            <polygon fill="#ffffff" points="37093.99609375,35846.609375 36901.99609375,35514.0546875 36549.99609375,35514.0546875 36421.99609375,35292.3515625 37541.99609375,35292.3515625 37413.99609375,35514.0546875 37157.99609375,35514.0546875 37285.99609375,35735.7578125 37221.99609375,35846.609375" id="polygon6" transform="">
            </polygon>
            <g transform="translate(1152,665.10751)" id="g10" transform-origin="">
                <path d="M 37897.5 33518 L 38052.5 33518 L 38052.5 34849 L 37904.5 34849 L 37160.5 33794 L 37160.5 34849 L 37005.5 34849 L 37005.5 33518 L 37153.5 33518 L 37897.5 34574" fill="#ffffff" id="path6" transform="">
                </path>
                <path d="M 38372.3 33705 L 38372.3 33560 C 38332.3 33549 38254.3 33549 38214.3 33560 L 38214.3 33705 C 38254.3 33716 38332.3 33716 38372.3 33705 M 38372.3 34849 L 38372.3 33914 L 38214.3 33896 L 38214.3 34849" fill="#ffffff" id="path7" transform="">
                </path>
                <path d="M 39334.1 33914 L 38997.1 34369 L 39332.1 34849 L 39139.1 34849 L 38909.1 34479 L 38681.1 34849 L 38498.1 34849 L 38832.1 34382 L 38514.1 33914 L 38708.1 33914 L 38916.1 34275 L 39143.1 33914" fill="#ffffff" id="path8" transform="">
                </path>
                <path d="M 40035 33493 C 40368 33493 40646 33736 40646 34184 C 40646 34632 40368 34874 40035 34874 C 39702 34874 39424 34632 39424 34184 C 39424 33736 39702 33493 40035 33493 M 40035 34738 C 40301 34738 40470 34517 40470 34184 C 40470 33851 40301 33630 40035 33630 C 39769 33630 39600 33851 39600 34184 C 39600 34517 39769 34738 40035 34738" fill="#ffffff" id="path9" transform="">
                </path>
                <path d="M 41018 34874 C 40887 34874 40745 34840 40664 34761 L 40736 34646 C 40821 34702 40923 34730 41024 34730 C 41177 34730 41295 34664 41295 34524 C 41295 34402 41207 34330 41004 34211 C 40849 34121 40729 34026 40729 33837 C 40729 33621 40903 33493 41153 33493 C 41257 33493 41349 33513 41432 33562 L 41378 33682 C 41313 33648 41218 33637 41141 33637 C 40985 33637 40898 33702 40898 33815 C 40898 33926 40977 34009 41106 34085 C 41345 34225 41471 34318 41471 34509 C 41471 34750 41268 34874 41018 34874" fill="#ffffff" id="path10" transform="">
                </path>
            </g>
        </g>
        <animate attributeName="opacity" keyTimes="0; 0.4166666666666667; 0.5; 0.9166666666666666; 1" values="0;1;1;0;0" begin="-0.00001" dur="6.00002" fill="freeze" calcMode="spline" keySplines="0.42 0 1 1;0.42 0 1 1;0.42 0 1 1;0.42 0 1 1">
        </animate>
    </g>
    <g id="g31" inkscape:label="logo" transform="matrix(0.08588448,0,0,0.08588448,-3006.0672,-2864.9838)" transform-origin="">
        <polygon fill="#ffffff" points="36005.99609375,35735.7578125 36197.99609375,35403.203125 36021.99609375,35098.36328125 36149.99609375,34876.66015625 36709.99609375,35846.609375 36453.99609375,35846.609375 36325.99609375,35624.90625 36197.99609375,35846.609375 36069.99609375,35846.609375" id="polygon21" transform="">
        </polygon>
        <polygon fill="#ffffff" points="35557.99609375,34738.09765625 35941.99609375,34738.09765625 36117.99609375,34433.2578125 36373.99609375,34433.2578125 35813.99609375,35403.203125 35685.99609375,35181.50390625 35813.99609375,34959.80078125 35557.99609375,34959.80078125 35493.99609375,34848.94921875" id="polygon22" transform="">
        </polygon>
        <polygon fill="#ffffff" points="36197.99609375,33851.2890625 36389.99609375,34183.83984375 36741.99609375,34183.83984375 36869.99609375,34405.54296875 35749.99609375,34405.54296875 35877.99609375,34183.83984375 36133.99609375,34183.83984375 36005.99609375,33962.13671875 36069.99609375,33851.2890625" id="polygon23" transform="">
        </polygon>
        <polygon fill="#ffffff" points="37285.99609375,33962.13671875 37093.99609375,34294.69140625 37269.99609375,34599.53125 37141.99609375,34821.234375 36581.99609375,33851.2890625 36837.99609375,33851.2890625 36965.99609375,34072.98828125 37093.99609375,33851.2890625 37221.99609375,33851.2890625" id="polygon24" transform="">
        </polygon>
        <polygon fill="#ffffff" points="37733.99609375,34959.80078125 37349.99609375,34959.80078125 37173.99609375,35264.640625 36917.99609375,35264.640625 37477.99609375,34294.69140625 37605.99609375,34516.39453125 37477.99609375,34738.09765625 37733.99609375,34738.09765625 37797.99609375,34848.94921875" id="polygon25" transform="">
        </polygon>
        <polygon fill="#ffffff" points="37093.99609375,35846.609375 36901.99609375,35514.0546875 36549.99609375,35514.0546875 36421.99609375,35292.3515625 37541.99609375,35292.3515625 37413.99609375,35514.0546875 37157.99609375,35514.0546875 37285.99609375,35735.7578125 37221.99609375,35846.609375" id="polygon26" transform="">
        </polygon>
        <g transform="translate(1152,665.10751)" id="g30" transform-origin="">
            <path d="M 37897.5 33518 L 38052.5 33518 L 38052.5 34849 L 37904.5 34849 L 37160.5 33794 L 37160.5 34849 L 37005.5 34849 L 37005.5 33518 L 37153.5 33518 L 37897.5 34574" fill="#ffffff" id="path26" transform="">
            </path>
            <path d="M 38372.3 33705 L 38372.3 33560 C 38332.3 33549 38254.3 33549 38214.3 33560 L 38214.3 33705 C 38254.3 33716 38332.3 33716 38372.3 33705 M 38372.3 34849 L 38372.3 33914 L 38214.3 33896 L 38214.3 34849" fill="#ffffff" id="path27" transform="">
            </path>
            <path d="M 39334.1 33914 L 38997.1 34369 L 39332.1 34849 L 39139.1 34849 L 38909.1 34479 L 38681.1 34849 L 38498.1 34849 L 38832.1 34382 L 38514.1 33914 L 38708.1 33914 L 38916.1 34275 L 39143.1 33914" fill="#ffffff" id="path28" transform="">
            </path>
            <path d="M 40035 33493 C 40368 33493 40646 33736 40646 34184 C 40646 34632 40368 34874 40035 34874 C 39702 34874 39424 34632 39424 34184 C 39424 33736 39702 33493 40035 33493 M 40035 34738 C 40301 34738 40470 34517 40470 34184 C 40470 33851 40301 33630 40035 33630 C 39769 33630 39600 33851 39600 34184 C 39600 34517 39769 34738 40035 34738" fill="#ffffff" id="path29" transform="">
            </path>
            <path d="M 41018 34874 C 40887 34874 40745 34840 40664 34761 L 40736 34646 C 40821 34702 40923 34730 41024 34730 C 41177 34730 41295 34664 41295 34524 C 41295 34402 41207 34330 41004 34211 C 40849 34121 40729 34026 40729 33837 C 40729 33621 40903 33493 41153 33493 C 41257 33493 41349 33513 41432 33562 L 41378 33682 C 41313 33648 41218 33637 41141 33637 C 40985 33637 40898 33702 40898 33815 C 40898 33926 40977 34009 41106 34085 C 41345 34225 41471 34318 41471 34509 C 41471 34750 41268 34874 41018 34874" fill="#ffffff" id="path30" transform="">
            </path>
        </g>
    </g>
</svg>
