<?xml version="1.0" encoding="UTF-8" standalone="no"?>
<svg
   viewBox="-3147.3225 -2992.9838 8114.4132 2980.748"
   version="1.1"
   id="svg10"
   sodipodi:docname="nixos-logo.svg"
   inkscape:version="1.4.2 (ebf0e940d0, 2025-05-08)"
   width="8114.4136"
   height="2980.748"
   inkscape:export-filename="nixos-logo.png"
   inkscape:export-xdpi="96"
   inkscape:export-ydpi="96"
   xmlns:inkscape="http://www.inkscape.org/namespaces/inkscape"
   xmlns:sodipodi="http://sodipodi.sourceforge.net/DTD/sodipodi-0.dtd"
   xmlns="http://www.w3.org/2000/svg"
   xmlns:svg="http://www.w3.org/2000/svg">
  <defs
     id="defs10">
    <filter
       inkscape:collect="always"
       style="color-interpolation-filters:sRGB"
       id="filter21"
       x="-0.017278496"
       y="-0.061733468"
       width="1.034557"
       height="1.1234669">
      <feGaussianBlur
         inkscape:collect="always"
         stdDeviation="51.324243"
         id="feGaussianBlur21" />
    </filter>
    <filter
       inkscape:collect="always"
       style="color-interpolation-filters:sRGB"
       id="filter31"
       x="-0.069113985"
       y="-0.24693387"
       width="1.138228"
       height="1.4938677">
      <feGaussianBlur
         inkscape:collect="always"
         stdDeviation="205.29697"
         id="feGaussianBlur31" />
    </filter>
  </defs>
  <sodipodi:namedview
     id="namedview10"
     pagecolor="#000000"
     bordercolor="#666666"
     borderopacity="1.0"
     inkscape:showpageshadow="2"
     inkscape:pageopacity="0.0"
     inkscape:pagecheckerboard="true"
     inkscape:deskcolor="#d1d1d1"
     inkscape:zoom="0.13757259"
     inkscape:cx="4357.6995"
     inkscape:cy="1126.6779"
     inkscape:window-width="1920"
     inkscape:window-height="1008"
     inkscape:window-x="0"
     inkscape:window-y="40"
     inkscape:window-maximized="1"
     inkscape:current-layer="svg10" />
  <g
     id="blur2"
     inkscape:label="blur2"
     transform="translate(-1502.6098,-1502.6098)"
     style="display:inline;filter:url(#filter31)">
    <polygon
       fill="#ffffff"
       points="-496,27.712813 64,997.66127 -192,997.66127 -320,775.95876 -448,997.66127 -576,997.66127 -640,886.81001 -448,554.25626 -624,249.41532 "
       id="polygon11" />
    <polygon
       fill="#ffffff"
       points="-272,-415.69219 -832,554.25626 -960,332.55376 -832,110.85125 -1088,110.85125 -1152,-1.7053026e-13 -1088,-110.85125 -704,-110.85125 -528,-415.69219 "
       id="polygon12" />
    <polygon
       fill="#ffffff"
       points="224,-443.40501 -896,-443.40501 -768,-665.10751 -512,-665.10751 -640,-886.81001 -576,-997.66127 -448,-997.66127 -256,-665.10751 96,-665.10751 "
       id="polygon13" />
    <polygon
       fill="#ffffff"
       points="496,-27.712813 -64,-997.66127 192,-997.66127 320,-775.95876 448,-997.66127 576,-997.66127 640,-886.81001 448,-554.25626 624,-249.41532 "
       id="polygon14" />
    <polygon
       fill="#ffffff"
       points="272,415.69219 832,-554.25626 960,-332.55376 832,-110.85125 1088,-110.85125 1152,-2.8421709e-13 1088,110.85125 704,110.85125 528,415.69219 "
       id="polygon15" />
    <polygon
       fill="#ffffff"
       points="-224,443.40501 896,443.40501 768,665.10751 512,665.10751 640,886.81001 576,997.66127 448,997.66127 256,665.10751 -96,665.10751 "
       id="polygon16" />
    <g
       transform="translate(1152,665.10751)"
       id="g20">
      <path
         d="m 1251.5176,-1331 h 155 V 0 h -148 L 514.51758,-1055 V 0 h -155 v -1331 h 148 l 744.00002,1056"
         fill="#ffffff"
         id="path16" />
      <path
         d="m 1726.3008,-1144 v -145 c -40,-11 -118,-11 -158,0 v 145 c 40,11 118,11 158,0 m 0,1144 v -935 l -158,-18 V 0"
         fill="#ffffff"
         id="path17" />
      <path
         d="m 2688.1318,-935 -337,455 335,480 h -193 l -230,-370 -228,370 h -183 l 334,-467 -318,-468 h 194 l 208,361 227,-361"
         fill="#ffffff"
         id="path18" />
      <path
         d="m 3389.0107,-1356 c 333,0 611,243 611,691 0,448 -278,690 -611,690 -333,0 -611,-242 -611,-690 0,-448 278,-691 611,-691 m 0,1245 c 266,0 435,-221 435,-554 0,-333 -169,-554 -435,-554 -266,0 -435,221 -435,554 0,333 169,554 435,554"
         fill="#ffffff"
         id="path19" />
      <path
         d="m 4371.9873,25 c -131,0 -273,-34 -354,-113 l 72,-115 c 85,56 187,84 288,84 153,0 271,-66 271,-206 0,-122 -88,-194 -291,-313 -155,-90 -275,-185 -275,-374 0,-216 174,-344 424,-344 104,0 196,20 279,69 l -54,120 c -65,-34 -160,-45 -237,-45 -156,0 -243,65 -243,178 0,111 79,194 208,270 239,140 365,233 365,424 0,241 -203,365 -453,365"
         fill="#ffffff"
         id="path20" />
    </g>
  </g>
  <g
     id="blur"
     inkscape:label="blur"
     style="filter:url(#filter21)"
     transform="translate(-1502.6098,-1502.6098)">
    <polygon
       fill="#ffffff"
       points="64,997.66127 -192,997.66127 -320,775.95876 -448,997.66127 -576,997.66127 -640,886.81001 -448,554.25626 -624,249.41532 -496,27.712813 "
       id="polygon1" />
    <polygon
       fill="#ffffff"
       points="-832,554.25626 -960,332.55376 -832,110.85125 -1088,110.85125 -1152,-1.7053026e-13 -1088,-110.85125 -704,-110.85125 -528,-415.69219 -272,-415.69219 "
       id="polygon2" />
    <polygon
       fill="#ffffff"
       points="-896,-443.40501 -768,-665.10751 -512,-665.10751 -640,-886.81001 -576,-997.66127 -448,-997.66127 -256,-665.10751 96,-665.10751 224,-443.40501 "
       id="polygon3" />
    <polygon
       fill="#ffffff"
       points="-64,-997.66127 192,-997.66127 320,-775.95876 448,-997.66127 576,-997.66127 640,-886.81001 448,-554.25626 624,-249.41532 496,-27.712813 "
       id="polygon4" />
    <polygon
       fill="#ffffff"
       points="832,-554.25626 960,-332.55376 832,-110.85125 1088,-110.85125 1152,-2.8421709e-13 1088,110.85125 704,110.85125 528,415.69219 272,415.69219 "
       id="polygon5" />
    <polygon
       fill="#ffffff"
       points="896,443.40501 768,665.10751 512,665.10751 640,886.81001 576,997.66127 448,997.66127 256,665.10751 -96,665.10751 -224,443.40501 "
       id="polygon6" />
    <g
       transform="translate(1152,665.10751)"
       id="g10">
      <path
         d="m 1251.5176,-1331 h 155 V 0 h -148 L 514.51758,-1055 V 0 h -155 v -1331 h 148 l 744.00002,1056"
         fill="#ffffff"
         id="path6" />
      <path
         d="m 1726.3008,-1144 v -145 c -40,-11 -118,-11 -158,0 v 145 c 40,11 118,11 158,0 m 0,1144 v -935 l -158,-18 V 0"
         fill="#ffffff"
         id="path7" />
      <path
         d="m 2688.1318,-935 -337,455 335,480 h -193 l -230,-370 -228,370 h -183 l 334,-467 -318,-468 h 194 l 208,361 227,-361"
         fill="#ffffff"
         id="path8" />
      <path
         d="m 3389.0107,-1356 c 333,0 611,243 611,691 0,448 -278,690 -611,690 -333,0 -611,-242 -611,-690 0,-448 278,-691 611,-691 m 0,1245 c 266,0 435,-221 435,-554 0,-333 -169,-554 -435,-554 -266,0 -435,221 -435,554 0,333 169,554 435,554"
         fill="#ffffff"
         id="path9" />
      <path
         d="m 4371.9873,25 c -131,0 -273,-34 -354,-113 l 72,-115 c 85,56 187,84 288,84 153,0 271,-66 271,-206 0,-122 -88,-194 -291,-313 -155,-90 -275,-185 -275,-374 0,-216 174,-344 424,-344 104,0 196,20 279,69 l -54,120 c -65,-34 -160,-45 -237,-45 -156,0 -243,65 -243,178 0,111 79,194 208,270 239,140 365,233 365,424 0,241 -203,365 -453,365"
         fill="#ffffff"
         id="path10" />
    </g>
  </g>
  <g
     id="g31"
     inkscape:label="logo"
     transform="translate(-1502.6098,-1502.6098)">
    <polygon
       fill="#ffffff"
       points="64,997.66127 -192,997.66127 -320,775.95876 -448,997.66127 -576,997.66127 -640,886.81001 -448,554.25626 -624,249.41532 -496,27.712813 "
       id="polygon21" />
    <polygon
       fill="#ffffff"
       points="-832,554.25626 -960,332.55376 -832,110.85125 -1088,110.85125 -1152,-1.7053026e-13 -1088,-110.85125 -704,-110.85125 -528,-415.69219 -272,-415.69219 "
       id="polygon22" />
    <polygon
       fill="#ffffff"
       points="-896,-443.40501 -768,-665.10751 -512,-665.10751 -640,-886.81001 -576,-997.66127 -448,-997.66127 -256,-665.10751 96,-665.10751 224,-443.40501 "
       id="polygon23" />
    <polygon
       fill="#ffffff"
       points="-64,-997.66127 192,-997.66127 320,-775.95876 448,-997.66127 576,-997.66127 640,-886.81001 448,-554.25626 624,-249.41532 496,-27.712813 "
       id="polygon24" />
    <polygon
       fill="#ffffff"
       points="832,-554.25626 960,-332.55376 832,-110.85125 1088,-110.85125 1152,-2.8421709e-13 1088,110.85125 704,110.85125 528,415.69219 272,415.69219 "
       id="polygon25" />
    <polygon
       fill="#ffffff"
       points="896,443.40501 768,665.10751 512,665.10751 640,886.81001 576,997.66127 448,997.66127 256,665.10751 -96,665.10751 -224,443.40501 "
       id="polygon26" />
    <g
       transform="translate(1152,665.10751)"
       id="g30">
      <path
         d="m 1251.5176,-1331 h 155 V 0 h -148 L 514.51758,-1055 V 0 h -155 v -1331 h 148 l 744.00002,1056"
         fill="#ffffff"
         id="path26" />
      <path
         d="m 1726.3008,-1144 v -145 c -40,-11 -118,-11 -158,0 v 145 c 40,11 118,11 158,0 m 0,1144 v -935 l -158,-18 V 0"
         fill="#ffffff"
         id="path27" />
      <path
         d="m 2688.1318,-935 -337,455 335,480 h -193 l -230,-370 -228,370 h -183 l 334,-467 -318,-468 h 194 l 208,361 227,-361"
         fill="#ffffff"
         id="path28" />
      <path
         d="m 3389.0107,-1356 c 333,0 611,243 611,691 0,448 -278,690 -611,690 -333,0 -611,-242 -611,-690 0,-448 278,-691 611,-691 m 0,1245 c 266,0 435,-221 435,-554 0,-333 -169,-554 -435,-554 -266,0 -435,221 -435,554 0,333 169,554 435,554"
         fill="#ffffff"
         id="path29" />
      <path
         d="m 4371.9873,25 c -131,0 -273,-34 -354,-113 l 72,-115 c 85,56 187,84 288,84 153,0 271,-66 271,-206 0,-122 -88,-194 -291,-313 -155,-90 -275,-185 -275,-374 0,-216 174,-344 424,-344 104,0 196,20 279,69 l -54,120 c -65,-34 -160,-45 -237,-45 -156,0 -243,65 -243,178 0,111 79,194 208,270 239,140 365,233 365,424 0,241 -203,365 -453,365"
         fill="#ffffff"
         id="path30" />
    </g>
  </g>
</svg>
